<svg width="16" height="16" viewBox="0 0 16 16" fill="none" xmlns="http://www.w3.org/2000/svg">
<path d="M4.66699 7.33398H6.00033V8.66732H4.66699V7.33398ZM4.66699 10.0007H6.00033V11.334H4.66699V10.0007ZM7.33366 7.33398H8.66699V8.66732H7.33366V7.33398ZM7.33366 10.0007H8.66699V11.334H7.33366V10.0007ZM10.0003 7.33398H11.3337V8.66732H10.0003V7.33398ZM10.0003 10.0007H11.3337V11.334H10.0003V10.0007Z" fill="#62626C"/>
<path d="M3.33333 14.6673H12.6667C13.402 14.6673 14 14.0693 14 13.334V4.00065C14 3.26532 13.402 2.66732 12.6667 2.66732H11.3333V1.33398H10V2.66732H6V1.33398H4.66667V2.66732H3.33333C2.598 2.66732 2 3.26532 2 4.00065V13.334C2 14.0693 2.598 14.6673 3.33333 14.6673ZM12.6667 5.33398L12.6673 13.334H3.33333V5.33398H12.6667Z" fill="#62626C"/>
</svg>
