<svg width="24" height="24" viewBox="0 0 24 24" fill="none" xmlns="http://www.w3.org/2000/svg">
<path d="M19.8149 10.5449H12.1856V13.6351H16.5761C16.1674 15.5988 14.4569 16.7271 12.1856 16.7271C11.55 16.7282 10.9205 16.6066 10.3331 16.3693C9.74575 16.1321 9.21208 15.7839 8.76272 15.3446C8.31336 14.9054 7.95715 14.3837 7.71452 13.8096C7.47189 13.2355 7.34762 12.6202 7.34882 11.9991C7.34774 11.378 7.4721 10.7629 7.71479 10.1889C7.95747 9.61487 8.3137 9.09334 8.76305 8.65418C9.21239 8.21502 9.74602 7.86686 10.3333 7.62968C10.9206 7.3925 11.5501 7.27095 12.1856 7.27201C13.3391 7.27201 14.3817 7.67228 15.1999 8.32686L17.5821 5.99958C16.1308 4.76296 14.27 4.00003 12.1856 4.00003C11.1097 3.99696 10.0439 4.20179 9.04938 4.60274C8.05484 5.00368 7.15123 5.59284 6.39051 6.33632C5.62979 7.07979 5.02696 7.96292 4.61672 8.93491C4.20647 9.9069 3.99689 10.9486 4.00004 12C3.99677 13.0515 4.20627 14.0932 4.61647 15.0652C5.02667 16.0373 5.62949 16.9204 6.39024 17.6639C7.15098 18.4074 8.05465 18.9966 9.04923 19.3975C10.0438 19.7984 11.1097 20.0032 12.1856 20C16.2783 20 20 17.0906 20 12C20 11.5272 19.9258 11.0177 19.8149 10.5449Z" fill="white"/>
</svg>
