<svg width="24" height="24" viewBox="0 0 24 24" fill="none" xmlns="http://www.w3.org/2000/svg">
<path d="M12.7025 6.3478C12.749 5.93643 12.4528 5.56099 12.0388 5.55869C10.6059 5.55072 9.1983 5.98301 8.01097 6.80641C6.61738 7.77284 5.62202 9.21233 5.20987 10.8574C4.79771 12.5024 4.99679 14.2412 5.7701 15.7505C6.5434 17.2598 7.83836 18.4371 9.41432 19.0635C10.9903 19.69 12.7401 19.723 14.3385 19.1564C15.937 18.5899 17.2754 17.4623 18.1051 15.9832C18.9348 14.5041 19.1993 12.7741 18.8495 11.1147C18.5514 9.70083 17.8247 8.42015 16.7774 7.44225C16.4748 7.15972 16.0016 7.22931 15.753 7.56037C15.5044 7.89142 15.5757 8.35804 15.8699 8.64928C16.6308 9.40246 17.1594 10.3657 17.3825 11.4239C17.6574 12.7279 17.4495 14.0874 16.7976 15.2497C16.1456 16.412 15.0938 17.2981 13.8377 17.7433C12.5816 18.1886 11.2065 18.1626 9.9681 17.6704C8.72966 17.1781 7.71205 16.253 7.10437 15.0669C6.49668 13.8808 6.34024 12.5145 6.66413 11.2217C6.98801 9.929 7.77019 8.79781 8.86531 8.03837C9.75397 7.4221 10.7997 7.08462 11.87 7.05932C12.2838 7.04954 12.656 6.75917 12.7025 6.3478Z" fill="#D9D9D9"/>
<path d="M11 4.44141L13 6.44141L11 8.44141" stroke="#D9D9D9" stroke-width="1.5" stroke-linecap="round" stroke-linejoin="round"/>
</svg>
