<svg width="24" height="24" viewBox="0 0 24 24" fill="none" xmlns="http://www.w3.org/2000/svg">
<path d="M8 12.0527C9.995 12.0527 11.5 10.5477 11.5 8.55273C11.5 6.55773 9.995 5.05273 8 5.05273C6.005 5.05273 4.5 6.55773 4.5 8.55273C4.5 10.5477 6.005 12.0527 8 12.0527ZM9 13.0007H7C4.243 13.0007 2 15.2437 2 18.0007V19.0007H14V18.0007C14 15.2437 11.757 13.0007 9 13.0007ZM20.293 8.29373L18 10.5867L15.707 8.29373L14.293 9.70773L16.585 11.9997L14.292 14.2927L15.706 15.7067L17.999 13.4137L20.293 15.7077L21.707 14.2937L19.414 12.0007L21.707 9.70773L20.293 8.29373Z" fill="#FF2D55"/>
</svg>
